<svg width="352" height="276" viewBox="0 0 352 276" fill="none" xmlns="http://www.w3.org/2000/svg">
<g clip-path="url(#clip0_4_124)">
<g clip-path="url(#clip1_4_124)">
<path d="M65.7517 275.525C57.6259 274.583 48.9202 271.946 40.9729 268.021C22.2573 258.777 8.44924 243.348 2.85963 225.433C0.774121 218.749 0.227753 214.986 0.227753 207.306C0.227753 196.947 1.87608 189.754 6.39382 180.399C9.6585 173.638 13.2056 168.681 19.2639 162.41C24.7896 156.691 28.9139 153.345 34.8722 149.746C37.41 148.214 38.5241 147.318 38.378 146.927C38.2603 146.613 37.8827 144.692 37.539 142.659C33.0831 116.305 41.6557 87.7368 59.2496 70.308C66.6713 62.956 73.4242 58.9158 82.1203 56.6249C84.882 55.8974 86.701 55.7052 90.781 55.71C96.6042 55.7169 100.785 56.5566 105.921 58.7508C107.559 59.4504 108.946 59.9558 109.003 59.874C109.06 59.7922 109.891 57.5256 110.849 54.837C113.126 48.4473 118.004 38.4438 121.585 32.8183C132.352 15.9057 145.867 4.87061 160.396 1.13067C165.129 -0.0878797 175.382 -0.177931 180.172 0.956977C198.941 5.40445 216.624 22.6733 227.354 47.032C228.454 49.5288 229.407 51.6386 229.473 51.7205C229.539 51.8023 231.882 51.2109 234.679 50.4061C240.519 48.7261 244.793 47.8944 250.634 47.3012C271.722 45.1594 294.99 51.9532 311.262 65.0033C315.416 68.3349 321.843 75.2241 324.513 79.2074C335.467 95.549 335.582 115.273 324.816 131.409C323.816 132.908 323.005 134.271 323.015 134.437C323.024 134.603 324.293 135.651 325.833 136.767C332.012 141.241 338.346 148.264 342.758 155.53C357.844 180.383 354.047 210.439 333.125 231.767C324.485 240.574 314.436 246.243 303.009 248.755C297.334 250.002 288.345 249.997 282.58 248.742C275.657 247.235 269.078 244.447 263.292 240.567C261.592 239.426 260.073 238.503 259.915 238.514C259.758 238.526 258.557 240.117 257.246 242.05C254.479 246.131 248.185 253.036 244.155 256.414C235.363 263.782 224.614 269.144 213.805 271.554C207.778 272.898 196.778 273.091 190.341 271.965C171.457 268.664 154.253 256.994 142.966 239.831L140.969 236.793L138.694 240.395C123.342 264.703 94.0581 278.807 65.7517 275.525Z" 
fill="#9EB6E6"/>
</g>
</g>
<defs>
<clipPath id="clip0_4_124">
<rect width="352" height="276" fill="#7B94D4"/>
</clipPath>
<clipPath id="clip1_4_124">
<rect width="352" height="276" fill="#7B94D4"/>
</clipPath>
</defs>
</svg>
